# xmcd
#
# Track frame offsets:
#	150
#	17691
#	37913
#	57643
#	73117
#	86278
#	100859
#	120387
#	131981
#	142330
#	155991
#	167064
#	178019
#	196728
#	210538
#	222650
#	234918
#	247405
#	259324
#
# Disc length: 3627 seconds
#
# Revision: 2
# Processed by: cddbd v1.5.2PL0 Copyright (c) Steve Scherf et al.
# Submitted via: EasyCDDAExtractor 12.0.1.1
#
DISCID=250e2913
DTITLE=Various Artist - The Ultimate Ballroom Album 11 CD2
DYEAR=0
DGENRE=Dance
TTITLE0=Ronaldo Veneziano - EW 29 - Antichi Ricordi
TTITLE1=Hayley Westenra - EW 29 - The Dark Waltz
TTITLE2=Lara St. John - EW 29 - The Sicilian
TTITLE3=Perry Como - EW 29 - You Ligh Up My Life
TTITLE4=Andy Williams - EW 29 - My Colouring Book
TTITLE5=The Commodores - EW 29 - Three Times A Lady
TTITLE6=Girls Aloud - EW 29 - See The Day
TTITLE7=Al Martino - EW 29 - Daddy's Little Girl
TTITLE8=Nat King Cole - EW 29 - He'll Have To Go
TTITLE9=Al Martino - EW 29 - Vaya Con Dios
TTITLE10=Mel Torme - WW 59 - Haven't We Met?
TTITLE11=World Strings Orch. and Choir - WW 59 - Wonderful Copenhagen
TTITLE12=Bond - TG 31 - Libertango
TTITLE13=Tango Cafe Orq. - TG 31 - La Cumparsita
TTITLE14=Tango Cafe Orq. - TG 31 - Noche De Reyes
TTITLE15=Tango Cafe Orq. - TG 31 - Si Soy Asi
TTITLE16=Tango Cafe Orq. - TG 31 - Tango Para Catalina
TTITLE17=Tango Cafe Orq. - TG 31 - El Marne
TTITLE18=World Strings Orch. - TG 31 - Adios Muchachos
EXTD=
EXTT0=
EXTT1=
EXTT2=
EXTT3=
EXTT4=
EXTT5=
EXTT6=
EXTT7=
EXTT8=
EXTT9=
EXTT10=
EXTT11=
EXTT12=
EXTT13=
EXTT14=
EXTT15=
EXTT16=
EXTT17=
EXTT18=
PLAYORDER=
